<?xml version="1.0" standalone="no"?>
<!DOCTYPE svg PUBLIC "-//W3C//DTD SVG 20010904//EN"
 "http://www.w3.org/TR/2001/REC-SVG-20010904/DTD/svg10.dtd">
<svg version="1.0" xmlns="http://www.w3.org/2000/svg"
 width="1024.000000pt" height="1024.000000pt" viewBox="0 0 1024.000000 1024.000000"
 preserveAspectRatio="xMidYMid meet">
<metadata>
Created by potrace 1.11, written by Peter Selinger 2001-2013
</metadata>
<g transform="translate(0.000000,1024.000000) scale(0.100000,-0.100000)"
fill="#000000" stroke="none">
<path d="M0 5120 l0 -5120 5120 0 5120 0 0 5120 0 5120 -5120 0 -5120 0 0
-5120z m4774 1078 c-19 -23 -19 -23 7 0 24 21 28 22 43 7 9 -9 20 -13 26 -10
6 4 9 2 8 -3 -3 -12 69 -80 93 -87 9 -3 30 -23 48 -45 27 -33 38 -40 64 -38
18 1 35 7 39 13 5 6 24 1 55 -15 26 -14 54 -25 63 -26 9 -1 25 -6 35 -12 15
-8 22 -6 32 6 9 13 12 13 13 3 0 -11 3 -11 15 -1 8 7 24 10 35 7 11 -3 20 -2
20 3 0 4 11 7 24 6 13 0 22 -5 19 -10 -3 -4 4 -5 15 -2 26 9 60 -22 40 -36 -9
-6 -8 -8 7 -6 13 2 20 -3 20 -14 0 -10 6 -23 13 -30 6 -6 12 -20 12 -31 0 -10
4 -16 9 -12 5 3 12 -3 15 -13 4 -11 18 -24 31 -30 14 -6 25 -18 25 -26 0 -9 6
-13 13 -10 7 2 22 -5 32 -16 19 -20 18 -21 -1 -15 -10 3 -1 -3 21 -14 22 -11
34 -20 27 -20 -8 -1 -12 -7 -9 -13 2 -7 9 -12 14 -11 5 1 10 -10 11 -25 1 -14
10 -35 21 -46 19 -21 36 -71 32 -93 -1 -7 2 -13 7 -13 17 0 52 -79 53 -121 1
-24 8 -63 16 -86 10 -31 11 -60 5 -110 -4 -37 -5 -83 -1 -101 5 -24 3 -32 -7
-32 -12 0 -12 -4 -2 -20 7 -11 18 -18 24 -16 7 3 9 -5 6 -21 -3 -18 -7 -21
-13 -11 -6 9 -9 9 -9 1 0 -6 5 -15 11 -19 6 -3 9 -14 6 -23 -2 -11 1 -18 10
-18 10 0 12 8 7 31 -8 40 4 29 16 -14 5 -18 7 -30 3 -26 -3 3 -12 1 -19 -5
-11 -9 -11 -16 1 -39 11 -21 12 -31 4 -36 -8 -5 -7 -9 3 -15 11 -6 15 -31 16
-103 0 -53 -3 -98 -9 -101 -5 -4 -9 8 -9 24 0 17 -4 31 -10 31 -5 0 -10 -17
-10 -38 0 -21 -4 -42 -10 -48 -5 -5 -10 -31 -11 -57 -2 -45 -3 -47 -28 -42
-14 3 -34 2 -43 -1 -16 -5 -16 -6 -1 -24 9 -10 20 -17 25 -14 4 3 8 1 8 -5 0
-5 -6 -12 -12 -14 -7 -3 -4 -6 6 -6 11 -1 16 -4 12 -8 -12 -13 -30 -10 -44 7
-11 13 -11 11 -2 -7 9 -19 8 -23 -4 -23 -8 0 -18 -5 -22 -12 -4 -6 -3 -8 4 -4
12 7 46 -23 37 -32 -3 -4 -10 0 -15 8 -11 17 -13 9 -4 -14 3 -8 12 -12 20 -9
10 4 13 -1 10 -18 -3 -13 -5 -30 -5 -38 -1 -7 -7 -11 -15 -8 -29 11 -26 -59 3
-78 6 -3 11 -12 11 -18 0 -9 -2 -9 -8 1 -8 12 -23 -37 -38 -121 -5 -29 -3 -37
7 -35 8 2 17 8 21 13 4 6 8 0 8 -12 0 -13 -5 -23 -11 -23 -5 0 -7 -4 -4 -10 3
-5 3 -10 -2 -11 -4 0 -23 -2 -40 -3 -18 -2 -33 0 -33 5 0 5 -9 9 -19 9 -14 0
-19 -6 -16 -20 3 -15 -1 -20 -18 -19 -12 0 -16 3 -9 6 9 4 10 9 2 18 -8 9 -6
14 5 19 8 3 15 10 15 15 0 6 -8 7 -17 4 -15 -6 -16 -4 -6 8 10 12 7 20 -18 43
-16 15 -27 32 -24 37 4 5 -2 6 -11 2 -12 -4 -15 -3 -10 5 5 8 0 12 -14 12 -14
0 -19 4 -14 13 4 6 -2 4 -13 -6 -16 -14 -23 -15 -29 -6 -4 8 -3 10 4 5 7 -4
12 -3 12 1 0 5 -12 14 -27 21 -44 19 -74 39 -76 48 -1 5 -5 8 -9 7 -4 -2 -5 4
-2 12 4 9 0 15 -9 15 -8 0 -17 10 -21 23 -4 16 -18 28 -46 37 -38 12 -41 12
-60 -10 -11 -13 -20 -33 -20 -46 0 -18 -4 -21 -22 -16 -20 5 -21 3 -11 -10 7
-8 10 -18 6 -22 -4 -3 -7 -19 -8 -34 -1 -15 -5 -54 -9 -86 -5 -33 -10 -76 -11
-95 -1 -20 -3 -44 -4 -53 0 -9 -10 -20 -21 -23 -11 -3 -20 -12 -20 -20 0 -18
-27 -26 -39 -11 -13 16 -4 26 17 20 10 -3 7 1 -5 7 -26 14 -30 29 -8 29 8 0
15 4 15 9 0 4 -12 6 -27 3 -21 -4 -25 -2 -20 11 3 8 3 18 -1 21 -6 7 -12 30
-14 54 -1 6 -5 12 -10 12 -4 0 -8 11 -8 24 0 14 -5 28 -10 31 -6 4 -8 11 -5
16 4 5 1 9 -6 9 -7 0 -10 3 -6 6 3 3 -3 23 -15 45 -11 21 -18 44 -16 50 5 16
-38 63 -51 55 -5 -3 -8 2 -7 11 3 16 -2 25 -32 58 -11 12 -11 15 0 15 9 0 9 3
2 8 -9 6 -23 49 -40 125 -1 4 -3 10 -4 15 -1 4 -2 10 -1 15 0 4 -4 7 -9 7 -6
0 -10 6 -9 13 1 6 -1 21 -6 32 -22 57 -30 75 -36 75 -4 0 -10 12 -13 26 -4 15
-12 32 -19 40 -29 33 -37 44 -31 44 3 0 1 7 -6 15 -7 8 -17 12 -23 8 -6 -3 -7
-1 -3 5 4 6 -2 20 -13 31 -11 11 -17 22 -13 25 3 3 -1 6 -8 6 -7 0 -10 3 -7 6
3 4 1 16 -5 28 -7 11 -13 23 -13 26 -10 44 -28 89 -35 85 -5 -3 -5 7 0 24 5
19 4 33 -3 41 -9 10 -9 11 1 5 11 -6 11 -3 1 13 -12 19 -14 19 -26 4 -11 -16
-13 -15 -14 3 -1 11 -2 27 -1 35 6 67 7 70 25 70 12 0 17 5 14 13 -3 8 -2 20
3 27 4 7 4 26 0 41 -5 17 -5 29 1 29 5 0 9 5 9 11 0 5 -6 7 -12 3 -7 -4 -4 2
6 14 11 12 17 24 15 27 -9 8 -50 -26 -44 -36 4 -5 1 -9 -4 -9 -6 0 -10 -3 -9
-7 0 -5 -3 -19 -9 -32 -6 -17 -12 -20 -17 -12 -4 6 13 62 38 124 24 62 48 126
52 142 4 17 11 36 17 43 7 9 6 11 -7 6 -9 -3 -16 -14 -17 -23 0 -12 -2 -11 -8
4 -10 23 -4 38 10 29 5 -3 9 -2 8 3 -1 4 6 25 15 46 9 21 15 52 12 68 -2 16
-1 29 4 29 4 0 7 15 7 33 0 17 4 41 8 52 4 11 9 27 13 35 3 8 4 21 3 28 -1 6
2 12 6 12 4 0 9 19 11 43 4 71 7 82 17 89 6 5 5 8 -3 8 -10 0 -10 5 -2 20 6
11 7 20 3 20 -4 0 -2 5 4 11 6 6 9 18 5 27 -4 11 -1 14 12 9 13 -5 15 -3 8 10
-6 9 -6 29 -2 45 5 15 6 28 2 28 -13 0 23 20 37 20 11 0 9 -6 -5 -22z m-239
-1020 c-2 -18 -4 -44 -5 -58 l-2 -25 -7 25 c-4 14 -4 27 1 28 4 2 6 8 2 13 -5
9 3 49 11 49 1 0 1 -15 0 -32z m-12 -113 c4 -8 2 -17 -3 -20 -6 -4 -10 3 -10
14 0 25 6 27 13 6z m1271 -911 c3 -8 2 -12 -4 -9 -6 3 -10 10 -10 16 0 14 7
11 14 -7z m-24 -70 c0 -8 -4 -12 -10 -9 -5 3 -10 10 -10 16 0 5 5 9 10 9 6 0
10 -7 10 -16z m30 -65 c0 -6 -4 -7 -10 -4 -5 3 -10 11 -10 16 0 6 5 7 10 4 6
-3 10 -11 10 -16z m-666 -177 c3 -5 -1 -9 -9 -9 -8 0 -15 4 -15 9 0 4 4 8 9 8
6 0 12 -4 15 -8z"/>
<path d="M5735 5560 c3 -5 8 -10 11 -10 2 0 4 5 4 10 0 6 -5 10 -11 10 -5 0
-7 -4 -4 -10z"/>
<path d="M4615 5410 c3 -5 8 -10 11 -10 2 0 4 5 4 10 0 6 -5 10 -11 10 -5 0
-7 -4 -4 -10z"/>
<path d="M5855 4790 c2 -25 4 -55 4 -67 1 -13 6 -23 12 -23 8 0 9 15 4 46 -4
28 -2 50 5 59 8 10 8 15 -1 21 -8 4 -9 3 -5 -4 4 -7 3 -12 -3 -12 -5 0 -12 6
-15 13 -3 6 -4 -8 -1 -33z"/>
</g>
</svg>
